<svg xmlns="http://www.w3.org/2000/svg" viewBox="0 0 256 256" role="img" aria-label="Party Bet Arena">
  <defs>
    <linearGradient id="bg" x1="24" y1="12" x2="232" y2="244" gradientUnits="userSpaceOnUse">
      <stop stop-color="#fff7b8"/>
      <stop offset="0.48" stop-color="#7fd957"/>
      <stop offset="1" stop-color="#5fb7ff"/>
    </linearGradient>
    <linearGradient id="ticket" x1="58" y1="82" x2="202" y2="198" gradientUnits="userSpaceOnUse">
      <stop stop-color="#ffffff"/>
      <stop offset="1" stop-color="#fff6d7"/>
    </linearGradient>
  </defs>
  <rect width="256" height="256" rx="58" fill="url(#bg)"/>
  <circle cx="206" cy="54" r="18" fill="#ff70a1"/>
  <circle cx="48" cy="202" r="14" fill="#3568ff"/>
  <path d="M76 84h104a24 24 0 0 0 24 24v66a24 24 0 0 0-24 24H76a24 24 0 0 0-24-24v-66a24 24 0 0 0 24-24Z" fill="url(#ticket)" stroke="#245234" stroke-width="9" stroke-linejoin="round"/>
  <path d="M91 79h74l-11-25 28 16 16-27 8 31 30-5-20 24 20 23-30-4-8 31-16-27-28 16 11-25H91z" fill="#ffcf5b" stroke="#245234" stroke-width="8" stroke-linejoin="round"/>
  <circle cx="128" cy="144" r="39" fill="#f2c114" stroke="#245234" stroke-width="8"/>
  <path d="M128 116v56M111 130c3-8 12-12 22-10 9 2 15 8 15 16 0 19-37 10-37 28 0 8 9 14 20 14 9 0 17-4 21-11" fill="none" stroke="#245234" stroke-width="11" stroke-linecap="round"/>
</svg>
